<svg version="1.1" id="Layer_1" xmlns="http://www.w3.org/2000/svg" xmlns:xlink="http://www.w3.org/1999/xlink" x="0px" y="0px"
	 width="100%" viewBox="0 0 577 433" enable-background="new 0 0 577 433" xml:space="preserve">
<path fill="#000000" opacity="1.000000" stroke="none" 
	d="
M421.000000,434.000000 
	C280.666687,434.000000 140.833405,434.000000 1.000075,434.000000 
	C1.000050,289.666748 1.000050,145.333466 1.000025,1.000153 
	C193.333206,1.000102 385.666412,1.000102 577.999756,1.000051 
	C577.999817,145.333176 577.999817,289.666351 577.999878,433.999756 
	C525.833313,434.000000 473.666656,434.000000 421.000000,434.000000 
M234.997543,77.998138 
	C234.997543,77.998138 234.982605,77.991089 234.097672,78.012779 
	C231.738129,78.090851 229.378601,78.168915 226.369995,78.153931 
	C225.937515,78.204987 225.505020,78.256035 224.259155,78.112564 
	C221.510544,78.477333 218.761917,78.842102 215.266708,79.106956 
	C214.515411,79.136749 213.764130,79.166550 212.348404,79.043709 
	C211.901550,79.106071 211.454681,79.168434 210.091568,79.090187 
	C200.226578,79.749130 190.358871,80.370087 180.497467,81.078804 
	C172.330612,81.665741 164.171204,82.356209 155.874527,82.553665 
	C155.581223,82.703583 155.287903,82.853508 154.513077,83.124603 
	C154.513077,83.124603 154.029236,83.236183 153.298004,83.058945 
	C152.273834,83.430420 151.249680,83.801903 150.073563,84.614761 
	C150.073563,84.614761 149.982193,85.072525 149.157700,85.371490 
	C149.106415,85.866684 149.010254,86.361877 149.010208,86.857079 
	C149.002335,176.068542 148.997818,265.279999 149.037781,354.491425 
	C149.038315,355.661285 149.606995,356.830841 150.112823,358.506866 
	C150.410095,358.703003 150.707367,358.899139 151.538376,359.716919 
	C155.031860,359.488220 158.525345,359.259521 162.929672,358.943726 
	C166.290482,358.966431 169.651291,358.989136 173.429047,359.771912 
	C212.588989,359.798981 251.748932,359.826050 291.633545,359.959503 
	C292.751556,359.577576 293.869598,359.195648 295.858215,358.951569 
	C301.824890,358.490997 307.910309,358.626251 313.737366,357.465057 
	C336.989960,352.831421 359.150146,345.400635 378.267548,330.677765 
	C393.267151,319.126129 405.511993,305.123718 414.034729,288.291840 
	C421.843475,272.870056 426.820465,256.404449 428.841278,238.574066 
	C428.897095,228.043518 428.970459,217.512970 428.966003,206.982437 
	C428.965729,206.335098 428.350861,205.688019 427.942139,204.181992 
	C426.875549,196.900101 426.773224,189.305450 424.534454,182.403793 
	C420.338867,169.469223 415.425476,156.703094 409.860901,144.292755 
	C402.382782,127.614960 390.491486,113.921234 376.757416,102.205246 
	C369.363617,95.897873 360.297089,91.484230 351.756744,86.617104 
	C347.681274,84.294495 343.156799,82.652512 338.679443,81.176163 
	C335.108032,79.998543 331.325775,79.369347 327.591064,78.797653 
	C320.754639,77.751144 313.884186,76.926918 306.643951,75.216553 
	C297.267456,75.139183 287.890991,75.028511 278.514496,75.027054 
	C277.357239,75.026878 276.199951,75.608856 274.540833,76.083450 
	C274.370544,76.127174 274.200256,76.170891 273.182800,76.025864 
	C267.792572,76.408806 262.402374,76.791748 256.350555,77.077301 
	C255.906448,77.103592 255.462357,77.129883 254.500839,77.042213 
	C254.329163,77.083679 254.157501,77.125137 253.310410,77.089737 
	C252.858398,77.061676 252.406372,77.033623 251.845367,76.576729 
	C251.577957,76.722221 251.310547,76.867722 250.358215,77.091362 
	C249.902206,77.143478 249.446182,77.195602 248.130035,77.076286 
	C245.418991,77.385193 242.707962,77.694107 239.337204,78.075462 
	C238.897888,78.123260 238.458557,78.171051 237.501465,78.100464 
	C237.329407,78.142189 237.157349,78.183907 236.500549,78.106300 
	C236.500549,78.106300 236.013000,77.998993 235.878159,77.551636 
	C235.582977,77.695427 235.287811,77.839226 234.997543,77.998138 
z"/>
<path fill="#D80E01" opacity="1.000000" stroke="none" 
	d="
M255.018250,77.156174 
	C255.462357,77.129883 255.906448,77.103592 257.034180,77.333214 
	C261.127014,77.721397 264.549408,78.088577 267.940521,77.898392 
	C269.995331,77.783157 272.001801,76.805046 274.029968,76.214600 
	C274.200256,76.170891 274.370544,76.127174 275.035400,76.059822 
	C275.689178,76.086121 275.848358,76.136055 276.361572,76.395538 
	C286.468018,76.479111 296.220398,76.353142 306.233337,76.157043 
	C306.671844,76.061279 306.849884,76.035645 307.027924,76.010002 
	C313.884186,76.926918 320.754639,77.751144 327.591064,78.797653 
	C331.325775,79.369347 335.108032,79.998543 338.679443,81.176163 
	C343.156799,82.652512 347.681274,84.294495 351.756744,86.617104 
	C360.297089,91.484230 369.363617,95.897873 376.757416,102.205246 
	C390.491486,113.921234 402.382782,127.614960 409.860901,144.292755 
	C415.425476,156.703094 420.338867,169.469223 424.534454,182.403793 
	C426.773224,189.305450 426.875549,196.900101 427.961060,205.077240 
	C428.015961,216.981766 428.051941,227.991043 428.087921,239.000336 
	C426.820465,256.404449 421.843475,272.870056 414.034729,288.291840 
	C405.511993,305.123718 393.267151,319.126129 378.267548,330.677765 
	C359.150146,345.400635 336.989960,352.831421 313.737366,357.465057 
	C307.910309,358.626251 301.824890,358.490997 295.073792,358.666138 
	C293.474731,358.255371 292.660126,358.020874 291.845428,358.020477 
	C253.980072,358.001984 216.114685,357.993225 178.249405,358.044983 
	C176.834137,358.046906 175.419724,358.660492 173.756897,359.003052 
	C173.508896,359.017059 173.012100,359.011841 173.012100,359.011841 
	C169.651291,358.989136 166.290482,358.966431 162.155273,358.733093 
	C157.989502,358.298889 154.598114,358.075317 151.168808,357.394043 
	C151.098602,354.605164 151.038208,352.273987 151.038116,349.942841 
	C151.034912,264.332428 151.044464,178.722046 151.002441,93.111656 
	C151.001251,90.669952 150.459488,88.228516 150.089233,85.617172 
	C150.008713,85.447395 149.982193,85.072525 149.982193,85.072525 
	C149.982193,85.072525 150.073563,84.614761 150.482269,84.365417 
	C151.937057,83.822777 152.983139,83.529480 154.029236,83.236183 
	C154.029236,83.236183 154.513077,83.124603 155.007385,83.077065 
	C155.670609,83.019958 155.839554,83.010384 156.008499,83.000801 
	C164.171204,82.356209 172.330612,81.665741 180.497467,81.078804 
	C190.358871,80.370087 200.226578,79.749130 210.726654,79.309769 
	C211.912094,79.418358 212.462463,79.307358 213.012833,79.196350 
	C213.764130,79.166550 214.515411,79.136749 215.971298,79.354721 
	C219.474777,79.170685 222.273651,78.738884 225.072540,78.307083 
	C225.505020,78.256035 225.937515,78.204987 227.018066,78.398193 
	C230.104965,78.425331 232.543777,78.208214 234.982605,77.991089 
	C234.982605,77.991089 234.997543,77.998138 235.249954,78.006271 
	C235.672562,78.009270 235.842773,78.004128 236.013000,77.998993 
	C236.013000,77.998993 236.500549,78.106300 236.855255,78.271790 
	C237.209946,78.437279 237.651077,78.478477 237.651077,78.478477 
	C237.651077,78.478477 238.019241,78.218842 238.019241,78.218842 
	C238.458557,78.171051 238.897888,78.123260 240.100632,78.051254 
	C243.572769,77.767265 246.281464,77.507492 248.990173,77.247719 
	C249.446182,77.195602 249.902206,77.143478 250.928513,77.061508 
	C251.498810,77.031647 251.954361,77.005569 251.954361,77.005569 
	C252.406372,77.033623 252.858398,77.061676 253.760773,77.232559 
	C254.211121,77.375381 254.651398,77.413345 254.651398,77.413345 
	C254.651398,77.413345 255.018250,77.156174 255.018250,77.156174 
M258.996613,170.992645 
	C258.996613,170.992645 259.065216,170.979004 258.384827,171.500870 
	C258.232391,172.306946 257.947052,173.112961 257.946716,173.919113 
	C257.933655,204.357376 257.937012,234.795685 257.990936,265.233887 
	C257.993164,266.497498 258.500854,267.760162 258.888947,269.778534 
	C259.080933,270.822968 259.272888,271.867371 259.675293,274.056580 
	C273.644012,262.484650 287.303986,251.995392 299.980255,240.428146 
	C311.982086,229.476364 318.210938,215.138306 317.679993,198.795334 
	C317.351990,188.699265 314.325592,179.150955 308.403870,170.376846 
	C300.660065,158.903015 285.023651,154.219727 272.962677,160.509262 
	C268.423553,162.876297 264.366669,166.168106 259.507965,169.287827 
	C259.342133,169.878952 259.176270,170.470078 258.996613,170.992645 
z"/>
<path fill="#A71812" opacity="1.000000" stroke="none" 
	d="
M150.169769,85.786949 
	C150.459488,88.228516 151.001251,90.669952 151.002441,93.111656 
	C151.044464,178.722046 151.034912,264.332428 151.038116,349.942841 
	C151.038208,352.273987 151.098602,354.605164 151.110474,357.704468 
	C151.061615,358.680176 151.033142,358.887695 151.004639,359.095276 
	C150.707367,358.899139 150.410095,358.703003 150.053253,357.785645 
	C149.996262,268.299866 149.997925,179.535339 150.008392,90.770798 
	C150.008591,89.109505 150.113647,87.448235 150.169769,85.786949 
z"/>
<path fill="#FFFFFF" opacity="1.000000" stroke="none" 
	d="
M150.089233,85.617172 
	C150.113647,87.448235 150.008591,89.109505 150.008392,90.770798 
	C149.997925,179.535339 149.996262,268.299866 149.952087,357.532471 
	C149.606995,356.830841 149.038315,355.661285 149.037781,354.491425 
	C148.997818,265.279999 149.002335,176.068542 149.010208,86.857079 
	C149.010254,86.361877 149.106415,85.866684 149.569946,85.222008 
	C149.982193,85.072525 150.008713,85.447395 150.089233,85.617172 
z"/>
<path fill="#B91308" opacity="1.000000" stroke="none" 
	d="
M174.004913,358.989044 
	C175.419724,358.660492 176.834137,358.046906 178.249405,358.044983 
	C216.114685,357.993225 253.980072,358.001984 291.845428,358.020477 
	C292.660126,358.020874 293.474731,358.255371 294.638489,358.597198 
	C293.869598,359.195648 292.751556,359.577576 290.944946,359.663269 
	C288.274841,359.244171 286.293427,359.015411 284.311859,359.014099 
	C247.542877,358.989594 210.773895,358.992188 174.004913,358.989044 
z"/>
<path fill="#FF0000" opacity="1.000000" stroke="none" 
	d="
M173.756897,359.003052 
	C210.773895,358.992188 247.542877,358.989594 284.311859,359.014099 
	C286.293427,359.015411 288.274841,359.244171 290.582611,359.610107 
	C251.748932,359.826050 212.588989,359.798981 173.220581,359.391876 
	C173.012100,359.011841 173.508896,359.017059 173.756897,359.003052 
z"/>
<path fill="#F67D7C" opacity="1.000000" stroke="none" 
	d="
M428.464600,238.787201 
	C428.051941,227.991043 428.015961,216.981766 428.000977,205.506638 
	C428.350861,205.688019 428.965729,206.335098 428.966003,206.982437 
	C428.970459,217.512970 428.897095,228.043518 428.464600,238.787201 
z"/>
<path fill="#F67D7C" opacity="1.000000" stroke="none" 
	d="
M306.835938,75.613281 
	C306.849884,76.035645 306.671844,76.061279 305.768921,76.092476 
	C295.365204,76.127357 285.686401,76.156677 276.007568,76.185997 
	C275.848358,76.136055 275.689178,76.086121 275.286316,75.978622 
	C276.199951,75.608856 277.357239,75.026878 278.514496,75.027054 
	C287.890991,75.028511 297.267456,75.139183 306.835938,75.613281 
z"/>
<path fill="#B91308" opacity="1.000000" stroke="none" 
	d="
M151.271515,359.406067 
	C151.033142,358.887695 151.061615,358.680176 151.148407,358.162231 
	C154.598114,358.075317 157.989502,358.298889 161.699860,358.776611 
	C158.525345,359.259521 155.031860,359.488220 151.271515,359.406067 
z"/>
<path fill="#B91308" opacity="1.000000" stroke="none" 
	d="
M273.606384,76.120232 
	C272.001801,76.805046 269.995331,77.783157 267.940521,77.898392 
	C264.549408,78.088577 261.127014,77.721397 257.364990,77.381905 
	C262.402374,76.791748 267.792572,76.408806 273.606384,76.120232 
z"/>
<path fill="#B91308" opacity="1.000000" stroke="none" 
	d="
M224.665848,78.209824 
	C222.273651,78.738884 219.474777,79.170685 216.344604,79.404678 
	C218.761917,78.842102 221.510544,78.477333 224.665848,78.209824 
z"/>
<path fill="#B91308" opacity="1.000000" stroke="none" 
	d="
M248.560104,77.162003 
	C246.281464,77.507492 243.572769,77.767265 240.430481,78.015030 
	C242.707962,77.694107 245.418991,77.385193 248.560104,77.162003 
z"/>
<path fill="#B91308" opacity="1.000000" stroke="none" 
	d="
M234.540131,78.001938 
	C232.543777,78.208214 230.104965,78.425331 227.342590,78.444717 
	C229.378601,78.168915 231.738129,78.090851 234.540131,78.001938 
z"/>
<path fill="#A71812" opacity="1.000000" stroke="none" 
	d="
M153.663620,83.147568 
	C152.983139,83.529480 151.937057,83.822777 150.558228,84.144730 
	C151.249680,83.801903 152.273834,83.430420 153.663620,83.147568 
z"/>
<path fill="#B91308" opacity="1.000000" stroke="none" 
	d="
M212.680618,79.120026 
	C212.462463,79.307358 211.912094,79.418358 211.184784,79.380081 
	C211.454681,79.168434 211.901550,79.106071 212.680618,79.120026 
z"/>
<path fill="#B91308" opacity="1.000000" stroke="none" 
	d="
M237.760345,78.159653 
	C238.019241,78.218842 237.651077,78.478477 237.651077,78.478477 
	C237.651077,78.478477 237.209946,78.437279 237.097626,78.331451 
	C237.157349,78.183907 237.329407,78.142189 237.760345,78.159653 
z"/>
<path fill="#A71812" opacity="1.000000" stroke="none" 
	d="
M155.941513,82.777237 
	C155.839554,83.010384 155.670609,83.019958 155.248138,83.016479 
	C155.287903,82.853508 155.581223,82.703583 155.941513,82.777237 
z"/>
<path fill="#B91308" opacity="1.000000" stroke="none" 
	d="
M254.759552,77.099197 
	C255.018250,77.156174 254.651398,77.413345 254.651398,77.413345 
	C254.651398,77.413345 254.211121,77.375381 254.098480,77.270988 
	C254.157501,77.125137 254.329163,77.083679 254.759552,77.099197 
z"/>
<path fill="#B91308" opacity="1.000000" stroke="none" 
	d="
M235.945587,77.775314 
	C235.842773,78.004128 235.672562,78.009270 235.247498,77.998711 
	C235.287811,77.839226 235.582977,77.695427 235.945587,77.775314 
z"/>
<path fill="#B91308" opacity="1.000000" stroke="none" 
	d="
M251.899872,76.791153 
	C251.954361,77.005569 251.498810,77.031647 251.270981,77.022430 
	C251.310547,76.867722 251.577957,76.722221 251.899872,76.791153 
z"/>
<path fill="#000000" opacity="1.000000" stroke="none" 
	d="
M260.089935,169.038330 
	C264.366669,166.168106 268.423553,162.876297 272.962677,160.509262 
	C285.023651,154.219727 300.660065,158.903015 308.403870,170.376846 
	C314.325592,179.150955 317.351990,188.699265 317.679993,198.795334 
	C318.210938,215.138306 311.982086,229.476364 299.980255,240.428146 
	C287.303986,251.995392 273.644012,262.484650 259.675293,274.056580 
	C259.272888,271.867371 259.080933,270.822968 258.917206,268.935730 
	C258.985382,235.721619 259.025299,203.350311 259.065216,170.979004 
	C259.065216,170.979004 258.996613,170.992645 259.298828,170.910812 
	C259.764008,170.232101 259.926971,169.635208 260.089935,169.038330 
z"/>
<path fill="#AD5655" opacity="1.000000" stroke="none" 
	d="
M258.725037,171.239929 
	C259.025299,203.350311 258.985382,235.721619 258.859253,268.558105 
	C258.500854,267.760162 257.993164,266.497498 257.990936,265.233887 
	C257.937012,234.795685 257.933655,204.357376 257.946716,173.919113 
	C257.947052,173.112961 258.232391,172.306946 258.725037,171.239929 
z"/>
<path fill="#B91308" opacity="1.000000" stroke="none" 
	d="
M276.361572,76.395538 
	C285.686401,76.156677 295.365204,76.127357 305.508423,76.162605 
	C296.220398,76.353142 286.468018,76.479111 276.361572,76.395538 
z"/>
<path fill="#AD5655" opacity="1.000000" stroke="none" 
	d="
M259.798950,169.163086 
	C259.926971,169.635208 259.764008,170.232101 259.305725,170.945099 
	C259.176270,170.470078 259.342133,169.878952 259.798950,169.163086 
z"/>
</svg>